<svg width="216" height="217" viewBox="0 0 216 217" fill="none" xmlns="http://www.w3.org/2000/svg">
<g filter="url(#filter0_d_67_4031)">
<path d="M48 84C48 107 61 127 80 137V31C61 41 48 61 48 84Z" fill="#25333A"/>
<path d="M168 84C168 61 155 41 136 31V137.2C155 127 168 107 168 84Z" fill="#137A08"/>
<path d="M108 24C97.8 24 88.4 26.6 80 31V137.2C88.4 141.6 97.8 144.2 108 144.2C118.2 144.2 127.6 141.6 136 137.2V31C127.6 26.6 118.2 24 108 24Z" fill="#EC1C24"/>
<path d="M115.6 94.0001H113.4C113.4 95.0001 113.2 95.8001 112.6 96.4001H117C116.2 95.8001 115.6 94.8001 115.6 94.0001ZM115.8 81.6001L117 80.2001H113L111 78.8001L104.8 78.6001L103 80.2001H99L100.2 81.6001H115.8ZM105.2 78.4001H110.6C111.4 78.0001 111.6 76.6001 111.6 76.0001C111.6 73.8001 110.2 72.8001 108.8 72.8001C108.6 72.8001 108.4 72.6001 108.2 72.4001C108 72.0001 108 71.6001 108 71.6001C107.8 71.6001 108 71.8001 107.8 72.4001C107.8 72.6001 107.6 72.8001 107.2 72.8001C105.4 72.8001 104.2 74.2001 104.4 76.0001C104.4 77.2001 104.6 78.0001 105.2 78.4001ZM113 94.8001L112 94.2001V93.0001L111.4 92.6001V91.4001L110.4 91.0001V90.0001L109.6 89.8001V88.8001L108.4 88.4001L107.8 88.0001V87.2001H103.8V86.6001C103.8 84.6001 106.4 82.8001 108 82.8001C110 82.8001 112.2 84.6001 112.2 86.6001V88.6001H112.4V86.6001C112.4 84.8001 110.2 82.6001 108.2 82.6001H115.4V82.4001H100.2V82.6001H107.4C106.2 82.6001 103.2 84.0001 103.2 86.6001V93.8001H104.8V95.2001H102.8C102.6 95.2001 102.4 94.8001 102.4 94.4001H100.4C100.4 95.4001 99.8 96.2001 99 97.0001H105V95.4001H106.6L107 97.0001H108.4L107.8 95.4001H109.2L110.2 97.0001H112.2L110.8 95.4001C110.8 94.8001 113 94.8001 113 94.8001ZM105 92.2001H106.2L106.4 93.6001H105V92.2001ZM107.8 94.8001H106.6L106.4 93.4001H107.4L107 92.0001H107.6L108.4 93.4001H107.4L107.8 94.8001ZM109.2 94.8001L108.4 93.4001H109.6L110.8 94.8001H109.2Z" fill="white"/>
<path d="M112.2 89.3999H112.4V91.3999H112.2V89.3999ZM100.6 91.5999H102.8V88.9999H100.6V89.5999L96.2 81.9999L96.4 81.5999C96.4 81.1999 96.2 80.9999 95.8 80.9999C95.4 80.9999 95.2 81.1999 95.2 81.5999C95.2 81.9999 95.4 82.1999 95.8 82.1999H96L96.2 82.3999C95.8 82.3999 95.4 83.3999 94.4 84.1999C93.8 84.5999 93.4 85.9999 93.2 86.7999V88.5999C93.2 88.9999 92.8 89.7999 93 89.9999C93.6 90.3999 94.4 91.5999 94.8 91.9999C95 92.1999 95.4 90.7999 95.6 89.7999V89.5999C95.8 88.7999 95.8 87.7999 96.4 87.1999L96.6 86.9999C97 86.5999 97.8 86.1999 98.2 85.7999L100.8 90.3999L100.6 91.5999ZM100.6 74.5999H102.6V74.9999H100.6V74.5999ZM100.6 75.3999H102.6V79.3999H100.6V75.3999ZM101.6 72.3999C101.2 72.3999 100.4 73.1999 100.6 73.9999H102.8C102.8 73.1999 102 72.3999 101.6 72.3999ZM100.4 82.7999H102.6V85.9999H100.4V82.7999Z" fill="white"/>
<path d="M100.6 87.7999H102.8V88.3999H100.6V87.7999ZM100.4 91.9999H102.8V93.3999H100.4V91.9999ZM100.6 87.1999H102.6L103 86.5999H100.4L100.6 87.1999ZM104.6 82.9999H103.2V84.7999C103.6 83.9999 104 83.3999 104.6 82.9999ZM123 87.5999V86.7999C123 85.9999 122.6 84.7999 121.8 84.1999C120.8 83.3999 120.2 82.3999 120 82.3999L120.2 82.1999H120.4C120.8 82.1999 121 81.9999 121 81.5999C121 81.1999 120.8 80.9999 120.4 80.9999C120 80.9999 119.8 81.1999 119.8 81.5999L120 81.9999L115.8 89.5999V88.9999H113.6V91.5999H115.8V90.1999L118.4 85.5999C118.6 85.7999 119.6 86.1999 120 86.7999L120.2 86.9999C120.8 87.7999 120.6 88.5999 120.8 89.3999V89.5999C121 90.3999 121.2 91.9999 121.6 91.7999C122 91.3999 122.8 90.3999 123.4 89.7999C123.6 89.5999 123.2 88.7999 123.2 88.3999C122.8 88.1999 123 87.9999 123 87.5999ZM113.6 74.5999H115.6V74.9999H113.6V74.5999ZM113.6 75.3999H115.6V79.3999H113.6V75.3999ZM115.6 73.9999C115.6 73.1999 115 72.3999 114.6 72.3999C114.2 72.3999 113.4 73.1999 113.6 73.9999H115.6ZM113.4 82.7999H115.6V85.9999H113.4V82.7999Z" fill="white"/>
<path d="M113.4 87.8H115.6V88.4H113.4V87.8ZM113.4 92H115.8V93.4H113.4V92ZM113 86.6L113.4 87.2H115.4L115.8 86.6H113ZM112.8 84.8V83H111.4C112 83.4 112.4 84 112.8 84.8Z" fill="white"/>
<path d="M129.2 86.4C130 86 131 85.4 131.6 84.8C132.2 83.8 132 82 132 82C132 82 130.6 82.6 129.4 83.2C129.4 82.4 129 81.4 128.6 80.6C129.2 80 130.2 79.2 130.4 78.6C131 77.4 130.2 75.8 130.2 75.8C130.2 75.8 129 76.6 128 77.6C127.8 76.8 127.2 76 126.6 75.2C127 74.4 127.8 73.4 127.8 72.8C128 71.4 126.8 70 126.8 70C126.8 70 125.8 71.2 125.2 72.4C124.6 71.6 123.6 70.6 122.8 70C123.2 69.4 123.2 68.8 123.2 68C123.2 63.6 116.4 60 107.8 60C99.4 60 92.4 63.6 92.4 68C92.4 68.6 92.6 69.4 92.8 70C92 70.6 91 71.4 90.4 72.4C89.8 71.2 88.8 70 88.8 70C88.8 70 87.6 71.4 87.8 72.8C88 73.6 88.6 74.6 89 75.2C88.4 76 87.8 76.8 87.6 77.6C86.8 76.6 85.4 75.8 85.4 75.8C85.4 75.8 84.6 77.4 85.2 78.6C85.6 79.4 86.4 80.2 87 80.6C86.6 81.4 86.4 82.4 86.2 83.2C85.6 82.6 84 82 84 82C84 82 83.6 83.8 84.4 84.8C84.8 85.4 86 86 86.8 86.4C86.6 87.2 86.6 88.4 86.8 89.2C85.6 88.8 84 88.6 84 88.6C84 88.6 84.2 90.4 85.2 91.2C85.8 91.6 87 92 87.8 92C88 92.8 88.2 94 88.6 94.6C87.4 94.4 85.8 94.8 85.8 94.8C85.8 94.8 86.4 96.6 87.6 97C88.4 97.2 89.6 97.2 90.4 97.2C90.8 98 91.2 99 91.8 99.6C90.6 99.8 89.2 100.4 89.2 100.4C89.2 100.4 90.2 102 91.6 102C92.4 102 93.6 101.8 94.4 101.4C95 102.2 95.6 102.8 96.4 103.4C95.2 104 94 105 94 105C94 105 95.4 106.2 96.8 106C97.2 106 97.4 105.8 97.8 105.6L96 108H120L118.4 106.2C118.8 106.4 119 106.4 119.4 106.6C120.8 106.8 122.2 105.6 122.2 105.6C122.2 105.6 121 104.6 119.8 104C120.6 103.6 121.2 102.8 121.8 102C122.6 102.4 123.8 102.6 124.6 102.6C126 102.4 127 101 127 101C127 101 125.6 100.4 124.4 100.2C125 99.6 125.4 98.6 125.8 97.8C126.6 97.8 127.8 98 128.6 97.6C129.8 97 130.4 95.4 130.4 95.4C130.4 95.4 128.8 95.2 127.6 95.2C128 94.4 128.2 93.4 128.4 92.6C129.2 92.4 130.4 92.2 131 91.8C132 91 132.2 89.2 132.2 89.2C132.2 89.2 130.6 89.4 129.4 89.8C129.4 88.4 129.2 87.4 129.2 86.4ZM97.8 101.6C97.2 101.2 96.4 100.8 95.6 100.6C95.8 100 96.2 99.4 96.4 98.8H98.2C98.2 99.4 97.8 100.6 97.8 101.6ZM115.6 100.8C115.4 101.4 115.4 102.2 115.6 103L114.4 101.6H101.4L100.2 103C100.4 102.2 100.4 101.4 100.2 100.8C100 99.8 99 99.2 98.4 99H117.2C116.8 99.2 116 99.8 115.6 100.8ZM118.2 101.6C118.2 100.6 117.8 99.4 117.8 98.8H119.6C119.8 99.4 120.2 100.2 120.4 100.6C119.6 101 118.8 101.2 118.2 101.6ZM126.4 88.8C125.4 88 124 87 124 87C124 87 123.4 88.8 124 90C124.4 90.8 125.6 91.6 126.2 92C125.6 92.6 125.2 93.2 124.8 93.8C124.2 92.6 123 91.4 123 91.4C123 91.4 122 93 122.2 94.2C122.4 95 123.2 96 123.8 96.8C123.2 97.2 122.4 97.6 122 98.2C121.6 97 120.8 95.4 120.8 95.4C120.8 95.4 119.4 96.6 119.4 98C119.4 98.2 119.4 98.6 119.6 99L117.6 97.2H98.6L96.6 99C96.6 98.6 96.8 98.4 96.8 98C96.8 96.6 95.4 95.4 95.4 95.4C95.4 95.4 94.6 96.8 94.2 98.2C93.8 97.6 93 97.2 92.4 96.8C93 96.2 93.8 95.2 94 94.2C94.4 92.8 93.2 91.4 93.2 91.4C93.2 91.4 92 92.6 91.4 93.8C91 93.2 90.6 92.6 90 92C90.8 91.6 91.8 90.8 92.2 90C92.8 88.8 92.2 87 92.2 87C92.2 87 90.6 87.8 89.8 88.8C89.6 88.2 89.4 87.4 89 86.8C89.8 86.6 91 86 91.6 85.4C92.6 84.4 92.4 82.6 92.4 82.6C92.4 82.6 90.8 83 89.6 83.6C89.6 83 89.6 82.2 89.4 81.4C90.2 81.4 91.6 81.2 92.4 80.8C93.6 80 93.8 78.2 93.8 78.2C93.8 78.2 92 78.2 90.8 78.6C91 78 91 77.2 91.2 76.4C92 76.6 93.4 76.8 94.2 76.6C95.6 76.2 96.2 74.6 96.2 74.6C96.2 74.6 94.6 74.2 93.2 74.2C94.2 72.6 94.6 69.6 94.6 69.6C94.6 69.6 94.4 69.6 94.2 69.8C96.6 67 102 65 108.2 65C114.4 65 119.8 67 122.2 69.8C122 69.6 121.8 69.6 121.8 69.6C121.8 69.6 122.2 72.6 123.2 74.2C121.8 74.2 120.2 74.6 120.2 74.6C120.2 74.6 121 76.2 122.2 76.6C123 76.8 124.4 76.6 125.2 76.4C125.2 77.2 125.2 78 125.6 78.6C124.4 78.2 122.6 78.2 122.6 78.2C122.6 78.2 123 80 124 80.8C124.8 81.2 126 81.4 127 81.4C126.8 82.2 126.6 83 126.8 83.6C125.6 83 124 82.6 124 82.6C124 82.6 123.8 84.4 124.8 85.4C125.4 86 126.6 86.4 127.4 86.8C127 87.4 126.6 88 126.4 88.8Z" fill="white"/>
</g>
<defs>
<filter id="filter0_d_67_4031" x="-4" y="-4" width="224" height="224" filterUnits="userSpaceOnUse" color-interpolation-filters="sRGB">
<feFlood flood-opacity="0" result="BackgroundImageFix"/>
<feColorMatrix in="SourceAlpha" type="matrix" values="0 0 0 0 0 0 0 0 0 0 0 0 0 0 0 0 0 0 127 0" result="hardAlpha"/>
<feOffset dy="24"/>
<feGaussianBlur stdDeviation="24"/>
<feComposite in2="hardAlpha" operator="out"/>
<feColorMatrix type="matrix" values="0 0 0 0 0.513726 0 0 0 0 0.588235 0 0 0 0 0.764706 0 0 0 0.16 0"/>
<feBlend mode="normal" in2="BackgroundImageFix" result="effect1_dropShadow_67_4031"/>
<feBlend mode="normal" in="SourceGraphic" in2="effect1_dropShadow_67_4031" result="shape"/>
</filter>
</defs>
</svg>
