<svg width="218" height="218" viewBox="0 0 218 218" fill="none" xmlns="http://www.w3.org/2000/svg">
<g filter="url(#filter0_d_67_4139)">
<path d="M79 32.9998C50.4 49.5998 40.4 86.3998 57 115L161 54.9998C144.4 26.3998 107.6 16.3998 79 32.9998Z" fill="#EFB22D"/>
<path d="M139 137C167.6 120.4 177.6 83.8 161 55L57 115C73.6 143.6 110.4 153.6 139 137Z" fill="#E23D28"/>
<path d="M160.4 57.8002C160.4 57.8002 157.4 57.6002 155.8 57.6002C154.2 57.6002 152.8 58.6002 151 58.8002C152.2 58.2002 152.8 57.2002 153.8 56.6002C154.8 56.2002 156.4 56.0002 156.6 54.6002C155.6 55.4002 154.2 55.2002 153 55.0002C151.8 55.0002 151 56.0002 150.2 56.6002C150.6 54.8002 151.6 53.6002 151.8 51.8002C152 50.2002 154.6 49.0002 153.8 47.2002C153.6 48.8002 151.6 49.0002 151 50.4002C150.4 52.2002 148.8 53.6002 148.6 55.6002C148.4 58.0002 146.6 56.8002 145 57.4002C144.6 57.6002 142.8 55.4002 140.2 55.4002C136.2 55.6002 134.6 55.6002 129.4 50.4002C128.2 49.2002 124 48.8002 122.4 49.8002C124 49.8002 125.4 50.2002 126.6 51.0002C125.8 51.6002 124.6 50.2002 123.6 50.8002C125.2 50.8002 125.8 51.6002 125.6 53.0002C124.2 52.0002 121.8 50.6002 120 51.4002C118.8 52.0002 116.6 51.2002 116 52.8002C117.6 52.0002 119.2 52.6002 120.8 53.2002C120 53.4002 118 53.4002 117.4 54.2002C118.2 54.0002 119 54.0002 119.6 54.2002C119.4 54.8002 119.2 55.4002 119.4 56.0002C117.2 55.2002 114.2 54.0002 112.2 55.6002C110 57.4002 113.4 59.4002 114 58.2002C112.6 58.8002 112 56.4002 114 56.4002C116.8 56.2002 119.4 57.4002 121.8 58.6002C120.6 59.0002 116.8 58.6002 116.2 57.0002C116 57.6002 116 58.4002 116.6 58.8002C114.8 58.8002 113.2 60.6002 111.6 60.4002C110.2 60.4002 107.4 60.4002 107.2 62.2002C109.4 60.2002 112.4 61.8002 115 61.4002C114.4 62.6002 114 64.0002 113.6 65.4002C113 67.2002 111.2 68.0002 110.2 69.8002C111 69.0002 112 68.4002 113.2 68.2002C112.6 69.6002 111 71.8002 111.8 73.2002C112.2 71.0002 113.6 71.6002 115.2 70.8002C114.8 71.8002 115.6 73.6002 117 73.2002C116.4 74.2002 117 75.6002 118.2 76.0002C117.4 77.0002 115.4 76.4002 115 77.4002C116.4 76.8002 117.6 79.0002 119.4 78.4002C119.2 79.2002 119.4 79.8002 119.8 80.4002C118.8 80.2002 117 81.0002 116.4 79.6002C115.8 81.2002 118.6 80.8002 118.2 82.0002C117.6 82.0002 116.8 80.4002 116.4 81.6002C116.2 81.6002 115.8 80.4002 115.2 80.2002C114.4 80.0002 113.4 80.6002 113 80.4002C113.8 79.2002 111.6 78.4002 110.8 79.2002C111 77.4002 107.6 76.2002 107.6 74.8002C107 75.8002 108.2 76.6002 108 77.6002C107.6 77.2002 107.2 77.0002 106.8 77.2002C105.6 77.4002 106.4 77.0002 105.2 76.8002C104 76.6002 104.6 77.4002 103.6 76.8002C103 76.4002 102.2 76.6002 102 77.0002C101.4 75.0002 98.8 76.0002 98.2 74.4002C98 75.4002 99.4 76.4002 99.6 77.4002C98.4 76.4002 96.2 77.6002 96.8 79.2002C96.4 79.4002 93.6 78.4002 94.2 80.6002C93.4 79.8002 88.8 80.4002 88.8 81.8002C89.6 81.2002 91.2 81.6002 91.8 82.0002C91.2 82.4002 91 83.8002 91.4 84.4002C89.2 84.2002 90.2 87.2002 89.2 87.8002C87.8 88.6002 86.4 90.6002 84.6 90.0002C85.6 91.6002 87.6 90.0002 88.8 90.2002C87.4 91.2002 88.6 92.8002 87.6 93.8002C86.8 94.8002 85.8 97.2002 84 96.6002C84.2 97.4002 85.2 97.6002 86 97.6002C85.4 98.0002 84.8 98.8002 84 98.4002C84 99.0002 84.4 99.4002 84.8 99.6002C83.8 99.6002 83 100 82 99.8002C82 100.2 82.2 100.8 82.4 101.2C81.2 100.8 78.8 100.2 78 101.6C78.6 101.6 79.6 101.6 79.8 102.4C79 101.8 78 102.2 77 102.2C75.6 102.4 74.8 101.6 73.4 101.2C72.4 100.8 67.8 100 67.6 101.6C68.6 100.8 70.8 102.4 72 102.2C73.8 102 75.2 103.4 76.8 103.8C74.4 103.6 73 104.8 70.8 105C69.8 105.2 67.6 104.8 67.4 106.2C68.4 105.6 69.6 106.4 70.8 106C71.8 105.8 72.8 105 73.8 105.4C73.2 106.2 72.2 106.6 71.2 106.8C69.6 107 69 107.6 67.6 108.4C66.6 109 65.2 108.8 64.2 109.6C63.4 110.2 62.6 111.2 61.4 111.2C62.8 112 64.2 110.6 65.4 110.2C67 109.6 68.6 109.8 70 108.8C69.2 110.8 66.4 110.4 64.8 111.6C62.8 113 61.4 115.2 59 115.6C60 116.8 62.2 115.2 63 114.8C64.8 113.8 67 114.2 68.6 112.8C70.2 111.4 72 111.2 73.4 109.8C73.8 109.4 77.4 107 77.8 107C76.4 107.6 76.2 109.8 74.4 110.2C75.8 110.8 78.8 108.4 80.4 107.8C79.6 109 77 109.6 76.8 111C78.2 109.8 80.2 110.2 81.4 109.2C82.6 108.2 85 106.6 85.8 105.2C86.6 104 87.4 103.4 88.6 102.6C89.2 102.2 89.8 101.6 90.6 101.4C91.4 101.2 92.2 101.8 93 101.4C93.2 105 91.8 102 90.6 103.6C90.4 103.8 91.8 104.2 92 104.6C92 104.6 89.8 106.6 89.6 106.6C90.2 107.4 91.6 106.8 92.2 106.2C92 106.8 92.8 107.4 92.6 108C93 108 94 105.8 94.4 106.2C93.4 106.6 95.2 107.2 95.2 107.2C94.6 107.6 95.2 108.2 95.6 108C95 108.2 95.6 109.2 95.2 109.6C94.8 110.6 94 110.4 93 111.2C92.2 112 92 113 92.2 114C92.4 114.8 93 117.4 93.4 115.8C92.6 119.6 97.4 122 100.2 119.4C101.6 118 103.2 112.2 100.8 111C101.2 111.2 101.8 111 102 110.8C102.2 111.2 102.4 111.4 102.8 111.4C104.2 111.8 104.6 113.6 104.4 115C105.4 113.8 105.2 110.8 104.2 109.6C103.8 109.2 102.4 108.6 101.8 108.4C101.2 108.4 100.8 108.4 100.6 109C100.2 108.6 99.6 108.4 99 108.6C99.2 107.8 98.2 105.8 97.4 105.4C95.8 104.4 96.8 101.8 97.2 100.4C97.8 100.8 99.6 101.4 100.4 101.8C101.2 102.2 105.6 103.2 103.8 102.4C107.8 104 110.2 97.6002 106.4 96.2002C108 96.4002 106.6 94.8002 105.8 94.4002C104.6 94.0002 102.2 94.6002 101.2 95.4002C101.4 95.2002 101.8 93.8002 102 93.6002C102.6 93.0002 103.2 92.4002 104.2 92.8002C100.4 87.8002 99.2 97.0002 97.4 96.2002C96.2 95.6002 96 92.2002 96.6 91.4002C97 91.0002 96.6 90.4002 96.8 89.8002C97.2 89.2002 98 88.6002 98.4 88.0002C99.8 85.6002 105.6 86.8002 108.2 88.0002C111.6 89.4002 116.2 90.0002 119.8 90.4002C119.4 91.2002 120 91.6002 119.8 92.2002C119.4 92.0002 116.2 92.0002 116 92.2002C116.8 92.2002 117.6 93.2002 118.6 93.2002C117 93.4002 116.8 95.6002 115.6 95.6002C116.4 96.2002 121 93.4002 119 96.8002C119.8 96.8002 120.2 95.8002 120.4 95.0002C121.2 95.4002 126 99.4002 127 97.8002C127 98.8002 128.4 98.8002 129 98.8002C130 98.8002 131.8 99.6002 132.6 99.4002C129.6 101.6 137.8 108.6 137.8 105.8C137.8 104 140.4 107.4 143 105C145.6 102.4 143.4 97.4002 139.8 97.6002C140.8 97.4002 143 97.2002 143.4 99.0002C145.2 96.0002 140.4 94.4002 138.4 95.2002C139.6 94.6002 138.8 94.0002 139.8 93.4002C140.6 93.0002 141.2 92.2002 142.2 92.4002C141 91.0002 136.2 91.4002 136.6 93.8002C136 93.6002 135.6 93.8002 135.2 94.2002C135.2 95.0002 134.8 95.2002 134 95.2002C133.6 96.0002 133.2 96.2002 132.8 95.4002C132 95.0002 131.6 95.2002 130.8 94.6002C130.2 94.2002 128.8 94.2002 128.2 94.2002C127.2 94.4002 126.8 93.0002 125.6 93.4002C125.4 91.4002 127 90.2002 127.8 88.6002C128.8 86.8002 129.8 85.0002 130.2 82.8002C130.4 81.0002 129.8 79.4002 132.2 79.2002C134 79.0002 134.4 81.2002 132.6 81.8002C133.4 82.4002 134.4 81.6002 134.8 80.8002C134.2 82.0002 134.2 84.2002 135.8 84.6002C135.4 83.6002 136.6 82.8002 136.2 81.8002C137 82.2002 137.8 83.0002 137.8 84.0002C138.8 82.8002 137.4 81.6002 137.4 80.4002C139.2 80.6002 140.4 80.0002 141.8 78.8002C143.4 77.8002 143.6 77.8002 144.8 78.8002C147 80.4002 151.8 80.0002 153.2 77.4002C153.8 76.0002 155.2 76.0002 154 74.4002C153.2 73.2002 152.2 72.2002 151.6 71.0002C150 67.2002 145 71.4002 144.4 72.6002C143.6 73.8002 144.2 74.0002 142.6 73.8002C140.6 73.6002 138.8 75.0002 136.6 74.6002C134.6 74.2002 133.2 73.2002 131.6 72.2002C129.4 71.0002 128.2 71.0002 126.6 68.8002C127.8 69.0002 129.2 69.2002 130.2 70.2002C131 71.0002 131.8 72.2002 133.2 71.8002C131.8 71.4002 130.4 69.2002 129 68.4002C130.4 66.6002 133.4 67.2002 135.6 67.2002C137.4 67.2002 138.2 69.2002 139.6 70.0002C138.8 70.4002 138.6 71.6002 137.6 71.6002C138.4 72.0002 139.4 71.8002 140.2 71.2002C140 72.0002 140.2 72.8002 141 73.2002C140.4 72.4002 141.4 71.8002 141.8 71.4002C142 72.0002 142.8 72.4002 142.6 73.0002C144.6 72.6002 143.2 67.8002 141.8 67.4002C144.4 65.2002 145 69.2002 144.2 71.0002C145.2 70.2002 145.2 69.0002 145.2 67.8002C147.2 68.4002 156.8 65.6002 156.4 69.4002C157.8 67.8002 155.2 66.6002 154 66.4002C153 66.2002 152.4 63.4002 151 64.6002C152.6 64.4002 151.8 66.6002 150.8 67.0002C151.2 65.6002 149.8 64.6002 148.4 65.0002C151.8 66.0002 146.6 68.6002 147 66.8002C147.2 65.6002 148.2 64.8002 148 63.6002C147.8 63.0002 147.4 62.2002 147.4 61.8002C148.2 62.0002 148.2 61.4002 147.6 61.0002C148.2 61.2002 148.8 60.6002 149.4 60.6002C150.8 60.4002 152 59.8002 153.4 59.2002C155.4 58.6002 160.4 57.8002 160.4 57.8002ZM137.8 64.4002C138.4 63.0002 141.6 61.6002 140.6 64.0002C141 63.8002 141.6 62.4002 142.2 62.8002C143 63.2002 143.4 64.0002 142.4 64.4002C143.2 64.4002 144 63.8002 144.8 64.0002C144.4 64.4002 144.4 65.2002 143.8 65.6002C142.6 66.4002 139.6 64.6002 137.8 64.4002ZM141.4 67.6002C140.6 67.2002 139 66.4002 138.4 65.6002C139.6 66.0002 141 66.2002 142.2 66.8002C142.2 66.8002 141.6 67.2002 141.4 67.6002Z" fill="white"/>
</g>
<defs>
<filter id="filter0_d_67_4139" x="-3" y="-3" width="224" height="224" filterUnits="userSpaceOnUse" color-interpolation-filters="sRGB">
<feFlood flood-opacity="0" result="BackgroundImageFix"/>
<feColorMatrix in="SourceAlpha" type="matrix" values="0 0 0 0 0 0 0 0 0 0 0 0 0 0 0 0 0 0 127 0" result="hardAlpha"/>
<feOffset dy="24"/>
<feGaussianBlur stdDeviation="24"/>
<feComposite in2="hardAlpha" operator="out"/>
<feColorMatrix type="matrix" values="0 0 0 0 0.513726 0 0 0 0 0.588235 0 0 0 0 0.764706 0 0 0 0.16 0"/>
<feBlend mode="normal" in2="BackgroundImageFix" result="effect1_dropShadow_67_4139"/>
<feBlend mode="normal" in="SourceGraphic" in2="effect1_dropShadow_67_4139" result="shape"/>
</filter>
</defs>
</svg>
