<svg width="217" height="216" viewBox="0 0 217 216" fill="none" xmlns="http://www.w3.org/2000/svg">
<g filter="url(#filter0_d_67_4096)">
<path d="M108.6 24C82.6 24 60.4 40.8 52.2 64H165.4C157 40.8 134.8 24 108.6 24Z" fill="#FF9933"/>
<path d="M108.6 144C134.8 144 157 127.4 165.2 104H52.2C60.4 127.4 82.6 144 108.6 144Z" fill="#128807"/>
<path d="M52.2 64C50 70.2 48.8 77 48.8 84C48.8 91 50 97.8 52.2 104H165.4C167.6 97.8 168.8 91 168.8 84C168.8 77 167.6 70.2 165.4 64H52.2Z" fill="white"/>
<path d="M108.6 100C117.437 100 124.6 92.8366 124.6 84C124.6 75.1634 117.437 68 108.6 68C99.7634 68 92.6 75.1634 92.6 84C92.6 92.8366 99.7634 100 108.6 100Z" fill="#010088"/>
<path d="M108.6 98C116.332 98 122.6 91.732 122.6 84C122.6 76.268 116.332 70 108.6 70C100.868 70 94.6 76.268 94.6 84C94.6 91.732 100.868 98 108.6 98Z" fill="white"/>
<path d="M103.4 72C103.952 72 104.4 71.5523 104.4 71C104.4 70.4477 103.952 70 103.4 70C102.848 70 102.4 70.4477 102.4 71C102.4 71.5523 102.848 72 103.4 72Z" fill="#010088"/>
<path d="M100.2 73.7998C100.752 73.7998 101.2 73.3521 101.2 72.7998C101.2 72.2475 100.752 71.7998 100.2 71.7998C99.6477 71.7998 99.2 72.2475 99.2 72.7998C99.2 73.3521 99.6477 73.7998 100.2 73.7998Z" fill="#010088"/>
<path d="M97.6 76.3999C98.1523 76.3999 98.6 75.9522 98.6 75.3999C98.6 74.8476 98.1523 74.3999 97.6 74.3999C97.0477 74.3999 96.6 74.8476 96.6 75.3999C96.6 75.9522 97.0477 76.3999 97.6 76.3999Z" fill="#010088"/>
<path d="M95.8 79.5996C96.3523 79.5996 96.8 79.1519 96.8 78.5996C96.8 78.0473 96.3523 77.5996 95.8 77.5996C95.2477 77.5996 94.8 78.0473 94.8 78.5996C94.8 79.1519 95.2477 79.5996 95.8 79.5996Z" fill="#010088"/>
<path d="M94.8 83.1997C95.3523 83.1997 95.8 82.752 95.8 82.1997C95.8 81.6474 95.3523 81.1997 94.8 81.1997C94.2477 81.1997 93.8 81.6474 93.8 82.1997C93.8 82.752 94.2477 83.1997 94.8 83.1997Z" fill="#010088"/>
<path d="M94.8 86.7998C95.3523 86.7998 95.8 86.3521 95.8 85.7998C95.8 85.2475 95.3523 84.7998 94.8 84.7998C94.2477 84.7998 93.8 85.2475 93.8 85.7998C93.8 86.3521 94.2477 86.7998 94.8 86.7998Z" fill="#010088"/>
<path d="M95.8 90.3999C96.3523 90.3999 96.8 89.9522 96.8 89.3999C96.8 88.8476 96.3523 88.3999 95.8 88.3999C95.2477 88.3999 94.8 88.8476 94.8 89.3999C94.8 89.9522 95.2477 90.3999 95.8 90.3999Z" fill="#010088"/>
<path d="M97.6 93.5996C98.1523 93.5996 98.6 93.1519 98.6 92.5996C98.6 92.0473 98.1523 91.5996 97.6 91.5996C97.0477 91.5996 96.6 92.0473 96.6 92.5996C96.6 93.1519 97.0477 93.5996 97.6 93.5996Z" fill="#010088"/>
<path d="M100.2 96.1997C100.752 96.1997 101.2 95.752 101.2 95.1997C101.2 94.6474 100.752 94.1997 100.2 94.1997C99.6477 94.1997 99.2 94.6474 99.2 95.1997C99.2 95.752 99.6477 96.1997 100.2 96.1997Z" fill="#010088"/>
<path d="M103.4 98C103.952 98 104.4 97.5523 104.4 97C104.4 96.4477 103.952 96 103.4 96C102.848 96 102.4 96.4477 102.4 97C102.4 97.5523 102.848 98 103.4 98Z" fill="#010088"/>
<path d="M106.8 98.7998C107.352 98.7998 107.8 98.3521 107.8 97.7998C107.8 97.2475 107.352 96.7998 106.8 96.7998C106.248 96.7998 105.8 97.2475 105.8 97.7998C105.8 98.3521 106.248 98.7998 106.8 98.7998Z" fill="#010088"/>
<path d="M109.6 97.9998C109.6 97.3998 110 96.9998 110.4 96.7998C111 96.7998 111.4 97.1998 111.6 97.5998C111.6 98.1998 111.2 98.5998 110.8 98.7998C110 98.9998 109.6 98.5998 109.6 97.9998Z" fill="#010088"/>
<path d="M114 98C114.552 98 115 97.5523 115 97C115 96.4477 114.552 96 114 96C113.448 96 113 96.4477 113 97C113 97.5523 113.448 98 114 98Z" fill="#010088"/>
<path d="M117.2 96.1997C117.752 96.1997 118.2 95.752 118.2 95.1997C118.2 94.6474 117.752 94.1997 117.2 94.1997C116.648 94.1997 116.2 94.6474 116.2 95.1997C116.2 95.752 116.648 96.1997 117.2 96.1997Z" fill="#010088"/>
<path d="M119.8 93.5996C120.352 93.5996 120.8 93.1519 120.8 92.5996C120.8 92.0473 120.352 91.5996 119.8 91.5996C119.248 91.5996 118.8 92.0473 118.8 92.5996C118.8 93.1519 119.248 93.5996 119.8 93.5996Z" fill="#010088"/>
<path d="M121.6 90.3999C122.152 90.3999 122.6 89.9522 122.6 89.3999C122.6 88.8476 122.152 88.3999 121.6 88.3999C121.048 88.3999 120.6 88.8476 120.6 89.3999C120.6 89.9522 121.048 90.3999 121.6 90.3999Z" fill="#010088"/>
<path d="M122.6 86.7998C123.152 86.7998 123.6 86.3521 123.6 85.7998C123.6 85.2475 123.152 84.7998 122.6 84.7998C122.048 84.7998 121.6 85.2475 121.6 85.7998C121.6 86.3521 122.048 86.7998 122.6 86.7998Z" fill="#010088"/>
<path d="M122.6 83.1997C122 83.1997 121.6 82.7997 121.4 82.3997C121.4 81.7997 121.8 81.3997 122.2 81.1997C122.8 81.1997 123.2 81.5997 123.4 81.9997C123.6 82.5997 123.2 82.9997 122.6 83.1997Z" fill="#010088"/>
<path d="M121.6 79.5996C122.152 79.5996 122.6 79.1519 122.6 78.5996C122.6 78.0473 122.152 77.5996 121.6 77.5996C121.048 77.5996 120.6 78.0473 120.6 78.5996C120.6 79.1519 121.048 79.5996 121.6 79.5996Z" fill="#010088"/>
<path d="M119.8 76.3999C120.352 76.3999 120.8 75.9522 120.8 75.3999C120.8 74.8476 120.352 74.3999 119.8 74.3999C119.248 74.3999 118.8 74.8476 118.8 75.3999C118.8 75.9522 119.248 76.3999 119.8 76.3999Z" fill="#010088"/>
<path d="M117.2 73.7998C117.752 73.7998 118.2 73.3521 118.2 72.7998C118.2 72.2475 117.752 71.7998 117.2 71.7998C116.648 71.7998 116.2 72.2475 116.2 72.7998C116.2 73.3521 116.648 73.7998 117.2 73.7998Z" fill="#010088"/>
<path d="M115 71.3998C114.8 71.9998 114.2 72.1998 113.6 71.9998C113 71.7998 112.8 71.1998 113 70.5998C113.2 69.9998 113.8 69.7998 114.4 69.9998C115 70.3998 115.2 70.9998 115 71.3998ZM111.4 70.1998C111.4 70.7998 110.8 71.1998 110.2 70.9998C109.6 70.9998 109.2 70.3998 109.4 69.7998C109.4 69.1998 110 68.7998 110.6 68.9998C111.2 69.1998 111.6 69.7998 111.4 70.1998ZM107.8 69.9998C107.8 70.5998 107.4 70.9998 107 71.1998C106.4 71.1998 106 70.7998 105.8 70.3998C105.8 69.7998 106.2 69.3998 106.6 69.1998C107.2 68.9998 107.8 69.3998 107.8 69.9998Z" fill="#010088"/>
<path d="M108.6 87C110.257 87 111.6 85.6569 111.6 84C111.6 82.3431 110.257 81 108.6 81C106.943 81 105.6 82.3431 105.6 84C105.6 85.6569 106.943 87 108.6 87Z" fill="#010088"/>
<path d="M108.6 70L108.2 78.6L108.6 84L109.2 78.6L108.6 70ZM105 70.4L106.8 79L108.6 84L107.8 78.6L105 70.4Z" fill="#010088"/>
<path d="M101.6 71.7998L105.6 79.5998L108.6 83.9998L106.4 78.9998L101.6 71.7998ZM98.8 73.9998L104.6 80.5998L108.6 83.9998L105.2 79.7998L98.8 73.9998Z" fill="#010088"/>
<path d="M96.6 77L103.8 81.8L108.6 84L104.2 80.8L96.6 77Z" fill="#010088"/>
<path d="M95.2 80.3999L103.4 82.9999L108.6 83.9999L103.6 82.1999L95.2 80.3999ZM94.6 83.9999L103.4 84.3999L108.6 83.9999L103.4 83.5999L94.6 83.9999Z" fill="#010088"/>
<path d="M95.2 87.6L103.6 85.8L108.6 84L103.4 85L95.2 87.6ZM96.6 91L104.2 87.2L108.6 84L103.8 86.2L96.6 91Z" fill="#010088"/>
<path d="M98.8 93.8L105.2 88.2L108.6 84L104.6 87.4L98.8 93.8ZM101.6 96.2L106.4 88.8L108.6 84L105.6 88.4L101.6 96.2Z" fill="#010088"/>
<path d="M105 97.6L107.8 89.4L108.6 84L106.8 89L105 97.6ZM108.6 98L109.2 89.4L108.6 84L108.2 89.4L108.6 98ZM112.2 97.6L110.6 89L108.6 84L109.6 89.4L112.2 97.6Z" fill="#010088"/>
<path d="M115.6 96.2L111.8 88.4L108.6 84L111 89L115.6 96.2ZM118.6 93.8L112.8 87.4L108.6 84L112.2 88.2L118.6 93.8Z" fill="#010088"/>
<path d="M120.8 90.9999L113.6 86.1999L108.6 83.9999L113 87.1999L120.8 90.9999ZM122.2 87.5999L114 84.9999L108.6 83.9999L113.8 85.7999L122.2 87.5999ZM122.6 83.9999L114 83.3999L108.6 83.9999L114 84.3999L122.6 83.9999ZM122.2 80.3999L113.8 82.1999L108.6 83.9999L114 82.9999L122.2 80.3999Z" fill="#010088"/>
<path d="M120.8 76.9997L113 80.7997L108.6 83.9997L113.6 81.7997L120.8 76.9997ZM118.6 74.1997L112.2 79.7997L108.6 83.9997L112.8 80.5997L118.6 74.1997Z" fill="#010088"/>
<path d="M115.6 71.7998L111 79.1998L108.6 83.9998L111.8 79.5998L115.6 71.7998Z" fill="#010088"/>
<path d="M112.4 70.3999L109.6 78.5999L108.6 83.9999L110.6 78.9999L112.4 70.3999Z" fill="#010088"/>
</g>
<defs>
<filter id="filter0_d_67_4096" x="-3" y="-4" width="224" height="224" filterUnits="userSpaceOnUse" color-interpolation-filters="sRGB">
<feFlood flood-opacity="0" result="BackgroundImageFix"/>
<feColorMatrix in="SourceAlpha" type="matrix" values="0 0 0 0 0 0 0 0 0 0 0 0 0 0 0 0 0 0 127 0" result="hardAlpha"/>
<feOffset dy="24"/>
<feGaussianBlur stdDeviation="24"/>
<feComposite in2="hardAlpha" operator="out"/>
<feColorMatrix type="matrix" values="0 0 0 0 0.513726 0 0 0 0 0.588235 0 0 0 0 0.764706 0 0 0 0.16 0"/>
<feBlend mode="normal" in2="BackgroundImageFix" result="effect1_dropShadow_67_4096"/>
<feBlend mode="normal" in="SourceGraphic" in2="effect1_dropShadow_67_4096" result="shape"/>
</filter>
</defs>
</svg>
