<svg width="216" height="216" viewBox="0 0 216 216" fill="none" xmlns="http://www.w3.org/2000/svg">
<g filter="url(#filter0_d_67_4155)">
<path d="M78 136V32C60 42.4 48 61.8 48 84C48 106.2 60 125.6 78 136Z" fill="white"/>
<path d="M108 24C97 24 86.8 27 78 32V136C86.8 141.2 97 144 108 144C141.2 144 168 117.2 168 84C168 50.8 141.2 24 108 24Z" fill="#006838"/>
<path d="M120 96.1998C107.8 96.1998 98 86.5998 98 74.5998C98 68.7998 100.2 63.7998 104 59.7998C95.8 63.9998 90 72.5998 90 82.3998C90 96.3998 101.6 107.8 116 107.8C130.4 107.8 142 96.3998 142 82.3998C142 80.9998 141.8 79.5998 141.6 78.3998C139.8 88.5998 130.8 96.1998 120 96.1998Z" fill="white"/>
<path d="M124 59.8L129 56L127 62.2L132 65.8L126 66L124 72L122 66L116 65.8L121 62.2L119 56L124 59.8Z" fill="white"/>
</g>
<defs>
<filter id="filter0_d_67_4155" x="-4" y="-4" width="224" height="224" filterUnits="userSpaceOnUse" color-interpolation-filters="sRGB">
<feFlood flood-opacity="0" result="BackgroundImageFix"/>
<feColorMatrix in="SourceAlpha" type="matrix" values="0 0 0 0 0 0 0 0 0 0 0 0 0 0 0 0 0 0 127 0" result="hardAlpha"/>
<feOffset dy="24"/>
<feGaussianBlur stdDeviation="24"/>
<feComposite in2="hardAlpha" operator="out"/>
<feColorMatrix type="matrix" values="0 0 0 0 0.513726 0 0 0 0 0.588235 0 0 0 0 0.764706 0 0 0 0.16 0"/>
<feBlend mode="normal" in2="BackgroundImageFix" result="effect1_dropShadow_67_4155"/>
<feBlend mode="normal" in="SourceGraphic" in2="effect1_dropShadow_67_4155" result="shape"/>
</filter>
</defs>
</svg>
