<svg width="216" height="216" viewBox="0 0 216 216" fill="none" xmlns="http://www.w3.org/2000/svg">
<g filter="url(#filter0_d_67_4172)">
<path d="M102.4 36H144C134 28.4 121.6 24 108 24C94.4 24 82 28.4 72 36H95.2V132H72C82 139.6 94.4 144 108 144C121.6 144 134 139.6 144 132H102.4V36Z" fill="#FEB600"/>
<path d="M168 84C168 64.4 158.6 47 144 36H102.4V132H144C158.6 121 168 103.6 168 84Z" fill="#8C2029"/>
<path d="M95.2 36H72C71.8 36.2 71.4 36.4 71.2 36.6V131.4C71.4 131.6 71.8 131.8 72 132H95.2V36Z" fill="#FE5B00"/>
<path d="M48 84.0001C48 103.2 57 120.4 71.2 131.4V36.6001C63.9646 42.1997 58.1105 49.3849 54.0884 57.6025C50.0663 65.8201 47.9834 74.851 48 84.0001Z" fill="#005641"/>
<path d="M112.8 119.2C110.6 120.8 106.4 120.6 104.6 122.6C102.4 124.8 104.8 127.6 104.8 128L104.6 129.6C104.6 129.6 106 129.6 106.8 129.8C107.8 130 108.2 130.8 109.8 130.6C114.2 130.4 114 126.4 114.2 123C114.4 121.8 115 120 115.2 118.8C115.4 117.6 115.6 116 115.6 116C115.6 115.4 114.2 118.2 112.8 119.2ZM114.2 45.3999C114 41.9999 114.2 37.9999 109.8 37.7999C108 37.5999 107.6 38.3999 106.8 38.5999C106.2 38.5999 104.6 38.7999 104.6 38.7999L104.8 40.3999C104.8 40.5999 102.4 43.5999 104.6 45.7999C106.4 47.5999 110.8 47.5999 112.8 49.1999C114.2 50.1999 115.6 52.7999 115.6 52.7999C115.6 52.7999 115.6 50.9999 115.2 49.9999C115 48.3999 114.4 46.5999 114.2 45.3999ZM167.6 77.3999C166 77.3999 164.6 77.1999 163.2 77.1999C163.8 77.5999 161.6 70.1999 162.8 69.1999C164.2 67.9999 163.2 60.7999 162 59.1999C162 58.9999 162 58.5999 162.2 58.3999C161.6 56.9999 160.8 55.5999 160 54.3999C157.8 53.5999 156 52.1999 155.2 55.3999C154.4 54.3999 152.2 52.1999 150.8 52.7999C150.6 53.5999 150.4 54.3999 150 55.1999C149 55.5999 145.4 53.5999 143.4 53.9999C143.4 57.9999 141 56.3999 138.2 57.7999C133 60.1999 135.6 55.5999 132.2 55.5999C125.8 55.5999 134.8 65.3999 136.4 66.3999C136.6 65.9999 135.8 65.1999 136.4 64.7999C136.4 64.7999 138.6 66.5999 138.6 65.9999C138.8 65.3999 138.8 64.7999 139.2 64.3999C139.8 65.3999 144.4 70.7999 143.4 71.7999C143.2 71.9999 138.8 71.5999 138.8 71.5999C139 71.1999 139.2 70.1999 139.2 69.9999C137.8 68.5999 135.2 68.3999 133.8 68.7999C132.6 69.1999 130.4 70.7999 130.2 72.7999C131 72.5999 133.8 71.7999 134.2 72.1999C134.4 72.3999 133.4 73.7999 133.4 73.9999C134.6 73.9999 137 74.5999 137.6 74.5999C137.8 74.1999 138.2 73.5999 138.4 73.1999C139 73.9999 139.4 74.7999 140 75.7999C140.6 76.1999 141.8 72.1999 143 74.9999C143.4 75.9999 133.2 85.5999 132.6 89.1999C132.2 91.1999 132.6 93.1999 133.4 94.9999C131.6 92.9999 126.8 87.5999 125.6 88.1999C122.6 89.7999 125.2 98.9999 126.6 100.8C128.2 103 137.6 108.4 137.6 101.2C137.6 100.8 137.2 100.2 136.8 99.3999C139 100.8 141.8 102 143 103.4C144.4 105 145.6 109.4 145.4 111.8C144.8 117.6 135.8 112.2 135.8 118.6C135.8 117.8 144.6 119 145.2 118.4C146.6 117.4 151 120.8 150.2 116C149.4 111.2 155.2 113.4 155.2 109.6C155.2 107.6 149 110 152.4 104.6C153.8 102.6 152.8 99.7999 154.4 102C157 105.2 161.2 103 165.8 100.6C167.2 95.3999 168 89.9999 168 84.3999C168 81.7999 167.8 79.5999 167.6 77.3999Z" fill="#FEB600"/>
<path d="M124 103.6C123.6 105 121.6 97.3998 122 96.9998C122.8 97.1998 123.4 97.1997 124.2 97.1997C124.8 96.7997 122.8 95.7997 121 95.1997C122.6 95.1997 124 94.5998 124 94.1997C124 93.7997 123.2 93.3997 121.8 93.1997C123 92.9997 123.8 92.5998 123.8 92.1997C123.8 91.7997 122.8 91.3997 121.4 91.1997C122.8 90.9997 124 90.5998 124 90.1997C124 89.7997 123.4 89.3997 122.4 89.1997C123.6 88.9997 124.4 88.5998 124.4 87.9998C124.4 87.5998 123.8 87.1998 122.8 86.9998C123.8 86.7998 124.6 86.5998 125.2 86.3998C128.6 82.7998 124.2 80.3997 124.2 84.1997C124.2 85.7997 119.8 85.1998 119 84.7998C118.2 84.3998 118.6 83.9998 119 83.3998C119.8 83.7998 123.4 84.3998 123.6 79.1998C123.8 76.9998 123.8 46.5998 126.6 46.5998C114.8 45.9998 120 75.7998 119 82.3998C118.2 80.9998 114.8 82.5998 115.8 84.7998C116.4 85.9998 117.8 86.5998 119.2 86.9998C118.2 87.1998 117.4 87.5998 117.4 87.9998C117.4 88.3998 118 88.7998 119 88.9998C117.8 89.1998 117 89.5998 117 89.9998C117 90.3998 118 90.7998 119.4 90.9998C118 91.1998 116.8 91.5998 116.8 91.9998C116.8 92.3998 117.8 92.7998 119 92.9998C117.8 93.1998 117 93.5998 117 93.9998C117 94.3998 117.6 94.7998 118.6 94.9998C117.8 95.1998 117.4 95.5998 117.4 96.1997L119.8 97.3998C119.8 98.9998 119 102.4 118.4 104C118.2 103.4 117.6 103.2 117.2 103C114.6 103.2 119.2 106.2 119.2 106C119.2 107 118.2 106.8 117.8 107.4C117.8 107.4 121 109.4 121 109.8C121.4 109.4 124 107.6 124.2 107.4C123.8 107 122.8 106.6 122.8 106C122.8 105.6 125.4 105 125.6 104.2C125.8 103.4 124.2 102.6 124 103.6Z" fill="#FEB600"/>
</g>
<defs>
<filter id="filter0_d_67_4172" x="-4" y="-4" width="224" height="224" filterUnits="userSpaceOnUse" color-interpolation-filters="sRGB">
<feFlood flood-opacity="0" result="BackgroundImageFix"/>
<feColorMatrix in="SourceAlpha" type="matrix" values="0 0 0 0 0 0 0 0 0 0 0 0 0 0 0 0 0 0 127 0" result="hardAlpha"/>
<feOffset dy="24"/>
<feGaussianBlur stdDeviation="24"/>
<feComposite in2="hardAlpha" operator="out"/>
<feColorMatrix type="matrix" values="0 0 0 0 0.513726 0 0 0 0 0.588235 0 0 0 0 0.764706 0 0 0 0.16 0"/>
<feBlend mode="normal" in2="BackgroundImageFix" result="effect1_dropShadow_67_4172"/>
<feBlend mode="normal" in="SourceGraphic" in2="effect1_dropShadow_67_4172" result="shape"/>
</filter>
</defs>
</svg>
